<svg width="18" height="17" viewBox="0 0 18 17" fill="none" xmlns="http://www.w3.org/2000/svg">
<path fill-rule="evenodd" clip-rule="evenodd" d="M13.649 16.0114C13.5157 16.0114 13.3815 15.9806 13.2583 15.9172L8.9557 13.6972L4.65393 15.9172C4.36872 16.0631 4.02444 16.0381 3.76623 15.8514C3.50634 15.6647 3.37723 15.3489 3.43208 15.0364L4.25143 10.3464L0.774906 7.02558C0.543701 6.80474 0.460163 6.47308 0.558889 6.16974C0.657616 5.86808 0.92173 5.64724 1.24069 5.60224L6.05044 4.91224L8.20048 0.640576C8.48569 0.0739095 9.42655 0.0739095 9.71176 0.640576L11.8618 4.91224L16.6715 5.60224C16.9905 5.64724 17.2546 5.86808 17.3533 6.16974C17.4521 6.47308 17.3685 6.80474 17.1373 7.02558L13.6608 10.3464L14.4802 15.0364C14.535 15.3489 14.4051 15.6647 14.146 15.8514C13.9992 15.9581 13.8245 16.0114 13.649 16.0114Z" fill="#FFBB0B"/>
</svg>
